<svg xmlns="http://www.w3.org/2000/svg" viewBox="0 0 1437.5 150"><defs><style>.cls-1{fill:#9fd485;}.cls-2{fill:#87c966;}.cls-3{fill:#4b7c33;}.cls-4{fill:#cfe9c2;}</style></defs><title>Fichier 4</title><g id="Calque_2" data-name="Calque 2"><g id="Calque_1-2" data-name="Calque 1"><path class="cls-1" d="M1437.5,29V150H1223.1c14.7-22.9,32.5-42.5,54-56.9C1330.4,56.8,1384.4,37.4,1437.5,29Z"/><path class="cls-2" d="M1437.5,83.2V150h-93.1C1372.2,123.1,1403,99.9,1437.5,83.2Z"/><rect class="cls-3" x="0.1" width="1437.4" height="150"/><path class="cls-2" d="M1280.7,0c-83,53.5-176.3,106.5-272,150H348.6C300.1,109,254.5,57.6,212.1,0Z"/><path class="cls-4" d="M1160.6,0C927,89.3,643.1,129.1,397.6,0Z"/><path class="cls-2" d="M262.7,150H.1V57c3.8-.9,7.6-1.8,11.4-2.5.8-.2,1.7-.3,2.5-.5,1.7-.3,3.4-.6,5-.9l2.1-.3c.3,0,.5-.1.8-.1l4.6-.6,2.5-.3h.3c1.4-.2,2.9-.3,4.3-.5.4,0,.8-.1,1.2-.1.6-.1,1.2-.1,1.8-.2h.1l3.3-.3h.5c1.2-.1,2.4-.2,3.6-.2h.3c.9,0,1.9-.1,2.8-.1a164.82,164.82,0,0,1,17.2.2c3.2.2,6.4.4,9.6.8.3,0,.7.1,1,.1,2.3.2,4.7.5,7,.9a248.53,248.53,0,0,1,50.9,13.4c1.4.5,2.8,1.1,4.2,1.6s2.8,1.1,4.2,1.7l4.2,1.8,4.2,1.8a.1.1,0,0,1,.1.1c1.5.7,3,1.4,4.5,2,.8.4,1.5.7,2.3,1.1s1.4.7,2.1,1c2.1,1,4.3,2.1,6.4,3.2,1.5.7,2.9,1.5,4.4,2.3s2.7,1.5,4.1,2.2a21.16,21.16,0,0,0,2.1,1.1l2.1,1.2,2.1,1.2,4.2,2.4,2.1,1.2c1.4.8,2.8,1.7,4.1,2.5a13.74,13.74,0,0,1,2,1.3c.7.4,1.4.9,2,1.3,1.2.7,2.3,1.5,3.5,2.2,6.3,4,12.5,8.3,18.6,12.7a14.29,14.29,0,0,0,2,1.4c1.3,1,2.6,1.9,3.9,2.9s2.6,2,3.9,2.9,2.4,1.9,3.6,2.8c.3.2.6.5.9.7.9.7,1.8,1.4,2.7,2.2,2.7,2.2,5.4,4.4,8,6.6,1.2,1,2.4,2,3.5,3C251,139.2,256.9,144.5,262.7,150Z"/><path class="cls-1" d="M262.7,150h-46a416.6,416.6,0,0,0-55.5-21,509.11,509.11,0,0,0-88.3-18.2A373.26,373.26,0,0,0,0,108.9V57c3.8-.9,7.6-1.8,11.4-2.5.8-.2,1.7-.3,2.5-.5,1.7-.3,3.4-.6,5-.9l2.1-.3c.3,0,.5-.1.8-.1l4.6-.6,2.5-.3h.3c1.4-.2,2.9-.3,4.3-.5.4,0,.8-.1,1.2-.1.6-.1,1.2-.1,1.8-.2h.1l3.3-.3h.5c1.2-.1,2.4-.2,3.6-.2h.3c.9,0,1.9-.1,2.8-.1,5.7-.2,11.4-.1,17.2.2,3.2.2,6.4.4,9.6.8.3,0,.7.1,1,.1,2.3.2,4.7.5,7,.9A234.12,234.12,0,0,1,119,61c4.6,1.5,9.2,3,13.8,4.8,1.4.5,2.8,1.1,4.2,1.6s2.8,1.1,4.2,1.7l4.2,1.8,4.2,1.8a.1.1,0,0,1,.1.1c1.5.7,3,1.4,4.5,2,.8.4,1.5.7,2.3,1.1s1.4.7,2.1,1c2.1,1,4.3,2.1,6.4,3.2,1.5.7,2.9,1.5,4.4,2.3s2.7,1.5,4.1,2.2a21.16,21.16,0,0,0,2.1,1.1l2.1,1.2,2.1,1.2,4.2,2.4,2.1,1.2c1.4.8,2.8,1.7,4.1,2.5a13.74,13.74,0,0,1,2,1.3c.7.4,1.4.9,2,1.3,1.2.7,2.3,1.5,3.5,2.2,6.3,4,12.5,8.3,18.6,12.7a14.29,14.29,0,0,0,2,1.4c1.3,1,2.6,1.9,3.9,2.9s2.6,2,3.9,2.9,2.4,1.9,3.6,2.8c.3.2.6.5.9.7.9.7,1.8,1.4,2.7,2.2,2.7,2.2,5.4,4.4,8,6.6,1.2,1,2.4,2,3.5,3C251,139.2,256.9,144.5,262.7,150Z"/><path class="cls-1" d="M1437.5,29V150H1223.1c14.7-22.9,32.5-42.5,54-56.9C1330.4,56.8,1384.4,37.4,1437.5,29Z"/><path class="cls-2" d="M1437.5,83.2V150h-93.1C1372.2,123.1,1403,99.9,1437.5,83.2Z"/></g></g></svg>