<?xml version="1.0" encoding="utf-8"?>
<!-- Generator: Adobe Illustrator 22.1.0, SVG Export Plug-In . SVG Version: 6.00 Build 0)  -->
<svg version="1.1" xmlns="http://www.w3.org/2000/svg" xmlns:xlink="http://www.w3.org/1999/xlink" x="0px" y="0px"
	 viewBox="0 0 1438 150" style="enable-background:new 0 0 1438 150;" xml:space="preserve">
<style type="text/css">
	.st0{fill:#343B52;}
	.st1{fill:#FFE600;}
	.st2{fill:#87C966;}
	.st3{fill:#65CEE7;}
	.st4{fill:#4BA2EA;}
	.st5{fill:#AF27CC;}
	.st6{fill:#EB3A4F;}
</style>
<g id="Calque_3">
</g>
<g id="Calque_2">
	<rect x="0.3" class="st0" width="1437.4" height="150"/>
	<g>
		<path class="st1" d="M1437.7,29v121h-214.4c14.7-22.9,32.5-42.5,54-56.9C1330.6,56.8,1384.6,37.4,1437.7,29z"/>
		<path class="st2" d="M1437.7,83.2V150h-93.1C1372.4,123.1,1403.2,99.9,1437.7,83.2z"/>
	</g>
	<g>
		<path class="st3" d="M1280.9,0c-83,53.5-176.3,106.5-272,150H348.8c-48.5-41-94.1-92.4-136.5-150H1280.9z"/>
		<path class="st4" d="M1160.8,0c-233.6,89.3-517.5,129.1-763,0H1160.8z"/>
	</g>
	<g>
		<path class="st5" d="M262.9,150H0.3V57c3.8-0.9,7.6-1.8,11.4-2.5c0.8-0.2,1.7-0.3,2.5-0.5c1.7-0.3,3.4-0.6,5-0.9
			c0.7-0.1,1.4-0.2,2.1-0.3c0.3,0,0.5-0.1,0.8-0.1c1.5-0.2,3.1-0.4,4.6-0.6c0.8-0.1,1.6-0.2,2.5-0.3c0.1,0,0.2,0,0.3,0
			c1.4-0.2,2.9-0.3,4.3-0.5c0.4,0,0.8-0.1,1.2-0.1c0.6-0.1,1.2-0.1,1.8-0.2c0,0,0,0,0.1,0c1.1-0.1,2.2-0.2,3.3-0.3
			c0.2,0,0.3,0,0.5,0c1.2-0.1,2.4-0.2,3.6-0.2c0.1,0,0.2,0,0.3,0c0.9,0,1.9-0.1,2.8-0.1c5.7-0.2,11.4-0.2,17.2,0.2
			c3.2,0.2,6.4,0.4,9.6,0.8c0.3,0,0.7,0.1,1,0.1c2.3,0.2,4.7,0.5,7,0.9c17,2.5,34.1,7.1,50.9,13.4c1.4,0.5,2.8,1.1,4.2,1.6
			c1.4,0.5,2.8,1.1,4.2,1.7c1.4,0.6,2.8,1.2,4.2,1.8c1.4,0.6,2.8,1.2,4.2,1.8c0,0,0.1,0,0.1,0.1c1.5,0.7,3,1.4,4.5,2
			c0.8,0.4,1.5,0.7,2.3,1.1c0.7,0.3,1.4,0.7,2.1,1c2.1,1,4.3,2.1,6.4,3.2c1.5,0.7,2.9,1.5,4.4,2.3c1.4,0.7,2.7,1.5,4.1,2.2
			c0.7,0.4,1.4,0.8,2.1,1.1c0.7,0.4,1.4,0.8,2.1,1.2c0.7,0.4,1.4,0.8,2.1,1.2c1.4,0.8,2.8,1.6,4.2,2.4c0.7,0.4,1.4,0.8,2.1,1.2
			c1.4,0.8,2.8,1.7,4.1,2.5c0.7,0.4,1.4,0.8,2,1.3c0.7,0.4,1.4,0.9,2,1.3c1.2,0.7,2.3,1.5,3.5,2.2c6.3,4,12.5,8.3,18.6,12.7
			c0.6,0.5,1.3,1,2,1.4c1.3,1,2.6,1.9,3.9,2.9c1.3,1,2.6,2,3.9,2.9c1.2,0.9,2.4,1.9,3.6,2.8c0.3,0.2,0.6,0.5,0.9,0.7
			c0.9,0.7,1.8,1.4,2.7,2.2c2.7,2.2,5.4,4.4,8,6.6c1.2,1,2.4,2,3.5,3C251.2,139.2,257.1,144.5,262.9,150z"/>
		<path class="st6" d="M262.9,150h-46c-17.9-8.3-36.5-15.3-55.5-21c-28.9-8.8-58.7-14.7-88.3-18.2c-25.4-3-49-3.7-72.9-1.9V57
			c3.8-0.9,7.6-1.8,11.4-2.5c0.8-0.2,1.7-0.3,2.5-0.5c1.7-0.3,3.4-0.6,5-0.9c0.7-0.1,1.4-0.2,2.1-0.3c0.3,0,0.5-0.1,0.8-0.1
			c1.5-0.2,3.1-0.4,4.6-0.6c0.8-0.1,1.6-0.2,2.5-0.3c0.1,0,0.2,0,0.3,0c1.4-0.2,2.9-0.3,4.3-0.5c0.4,0,0.8-0.1,1.2-0.1
			c0.6-0.1,1.2-0.1,1.8-0.2c0,0,0,0,0.1,0c1.1-0.1,2.2-0.2,3.3-0.3c0.2,0,0.3,0,0.5,0c1.2-0.1,2.4-0.2,3.6-0.2c0.1,0,0.2,0,0.3,0
			c0.9,0,1.9-0.1,2.8-0.1c5.7-0.2,11.4-0.1,17.2,0.2c3.2,0.2,6.4,0.4,9.6,0.8c0.3,0,0.7,0.1,1,0.1c2.3,0.2,4.7,0.5,7,0.9
			c12.4,1.8,24.8,4.7,37.1,8.6c4.6,1.5,9.2,3,13.8,4.8c1.4,0.5,2.8,1.1,4.2,1.6c1.4,0.5,2.8,1.1,4.2,1.7c1.4,0.6,2.8,1.2,4.2,1.8
			c1.4,0.6,2.8,1.2,4.2,1.8c0,0,0.1,0,0.1,0.1c1.5,0.7,3,1.4,4.5,2c0.8,0.4,1.5,0.7,2.3,1.1c0.7,0.3,1.4,0.7,2.1,1
			c2.1,1,4.3,2.1,6.4,3.2c1.5,0.7,2.9,1.5,4.4,2.3c1.4,0.7,2.7,1.5,4.1,2.2c0.7,0.4,1.4,0.8,2.1,1.1c0.7,0.4,1.4,0.8,2.1,1.2
			c0.7,0.4,1.4,0.8,2.1,1.2c1.4,0.8,2.8,1.6,4.2,2.4c0.7,0.4,1.4,0.8,2.1,1.2c1.4,0.8,2.8,1.7,4.1,2.5c0.7,0.4,1.4,0.8,2,1.3
			c0.7,0.4,1.4,0.9,2,1.3c1.2,0.7,2.3,1.5,3.5,2.2c6.3,4,12.5,8.3,18.6,12.7c0.6,0.5,1.3,1,2,1.4c1.3,1,2.6,1.9,3.9,2.9
			c1.3,1,2.6,2,3.9,2.9c1.2,0.9,2.4,1.9,3.6,2.8c0.3,0.2,0.6,0.5,0.9,0.7c0.9,0.7,1.8,1.4,2.7,2.2c2.7,2.2,5.4,4.4,8,6.6
			c1.2,1,2.4,2,3.5,3C251.2,139.2,257.1,144.5,262.9,150z"/>
	</g>
</g>
<g id="Calque_4">
</g>
</svg>
