<svg xmlns="http://www.w3.org/2000/svg" viewBox="0 0 210.63 188.22"><defs><style>.cls-1{fill:#11100e;}.cls-2{fill:#1d1e1c;}.cls-3{fill:#b7dfa3;}.cls-4{fill:#6f965c;}.cls-5{fill:#87c966;}.cls-6{fill:#cfe9c2;}.cls-7{fill:#9fd485;}</style></defs><title>Fichier 1</title><g id="Calque_2" data-name="Calque 2"><g id="Calque_1-2" data-name="Calque 1"><path class="cls-1" d="M182.49,161.43v-.07l-.61-4.83h0a.89.89,0,0,0-.87-.76.46.46,0,0,0-.22,0,.51.51,0,0,1-.22.07,11.07,11.07,0,0,1-4,.72,4.24,4.24,0,0,1-3.5-1.3,7.07,7.07,0,0,1-1-4.33V140.24h8.29a.86.86,0,0,0,.79-.83v-4.87a.87.87,0,0,0-.87-.83h-8.18v-6.92h0v-.18a.89.89,0,0,0-.87-.79h-6.16a.85.85,0,0,0-.87.83h0v7h-4.76a.85.85,0,0,0-.87.84s0,0,0,0v4.79a.86.86,0,0,0,.68.87h4.94v12.15c0,3.82.87,6.63,2.63,8.47s4.43,2.78,8,2.78a19,19,0,0,0,4.36-.47,14,14,0,0,0,2.78-.9.83.83,0,0,0,.54-.76v0C182.49,161.47,182.49,161.47,182.49,161.43Z"/><path class="cls-2" d="M42.3,154.8a2.39,2.39,0,0,1-.32-.68c-.11-.58.4-1.08.68-1.55a13.52,13.52,0,0,0,.87-1.59,22.08,22.08,0,0,0,2.38-10.81,23,23,0,0,0-1.55-7.93,22,22,0,0,0-3.86-6.34,20.31,20.31,0,0,0-5.23-4.36,21.78,21.78,0,0,0-6.74-2.67,25,25,0,0,0-7.68-.5,22.55,22.55,0,0,0-14.06,6.27A22.16,22.16,0,0,0,.12,138.54a25.05,25.05,0,0,0,.47,7.86,23.18,23.18,0,0,0,3,7.1A21.18,21.18,0,0,0,8.63,159a22.25,22.25,0,0,0,6.56,3.39,21.74,21.74,0,0,0,4,.9,22.87,22.87,0,0,0,3.86.25,31.65,31.65,0,0,0,3.68-.32,20,20,0,0,0,2-.4c.54-.14,1.15-.25,1.37-.83a1.62,1.62,0,0,0-.29-1.33c-.25-.54-.54-1.08-.79-1.62-.5-1-1-2-1.48-3a1,1,0,0,0-.65-.58,1.62,1.62,0,0,0-.83,0c-.32.07-.65.11-1,.18a15.41,15.41,0,0,1-4.07,0,14.85,14.85,0,0,1-11.72-8.9,15.28,15.28,0,0,1-1.12-7.61,14.91,14.91,0,1,1,28.51,7.57,14.56,14.56,0,0,1-3.82,5.26,1.73,1.73,0,0,0-.58.68,1.09,1.09,0,0,0,0,.76l4.25,8.44c.22.43.43,1.08.87,1.33a2.11,2.11,0,0,0,1,.14H45a1,1,0,0,0,.94-1.55c-.4-.79-.83-1.55-1.23-2.34Z"/><path class="cls-2" d="M80.8,153.5,86,134.14a.85.85,0,0,1,.83-.61h6.27a.88.88,0,0,1,.87.87.61.61,0,0,1,0,.25l-9.12,27.43a.89.89,0,0,1-.79.5H78.09a.89.89,0,0,1-.79-.5l-6.38-18.67-6.13,18.71v0a.84.84,0,0,1-.76.47H58.2a.83.83,0,0,1-.79-.54L48.25,134.4a.88.88,0,0,1,.87-.87H55.6a.89.89,0,0,1,.72.5l5.15,19.43,6-19.39a.9.9,0,0,1,.79-.54H73.7a.89.89,0,0,1,.79.5Z"/><path class="cls-2" d="M117,137.28a9.69,9.69,0,0,0-3.86-3.46,11.7,11.7,0,0,0-5.41-1.23,12.82,12.82,0,0,0-7.21,2.13,14.43,14.43,0,0,0-4.94,5.66,17.23,17.23,0,0,0-1.73,7.75v.61a17.28,17.28,0,0,0,1.77,7.5,13.08,13.08,0,0,0,4.83,5.41,12.74,12.74,0,0,0,6.89,1.87,13.38,13.38,0,0,0,4.79-.79,10,10,0,0,0,4.87-3.86l.07,3a.89.89,0,0,0,.87.76h5.88a.88.88,0,0,0,.87-.87V134.4a.88.88,0,0,0-.87-.87h-5.88a.89.89,0,0,0-.87.72v0Zm-1.73,4.94a9.52,9.52,0,0,1-.18,11.86,7.75,7.75,0,0,1-11,.15l-.15-.15a8.51,8.51,0,0,1-2.16-5.37,8.94,8.94,0,0,1,2.13-6.67,7.26,7.26,0,0,1,5.59-2.34,7.45,7.45,0,0,1,5.73,2.52Z"/><path class="cls-2" d="M137.43,134.29a.89.89,0,0,0-.87-.76h-5.91a.88.88,0,0,0-.87.87v27.33a.88.88,0,0,0,.87.87h6.24a.85.85,0,0,0,.83-.61v-15a8.33,8.33,0,0,1,1.59-5.41,5.45,5.45,0,0,1,4.43-1.91q5.19,0,5.19,6.81V162a.89.89,0,0,0,.83.61H156a.85.85,0,0,0,.87-.84s0,0,0,0V145c0-4-.9-7.07-2.7-9.16s-4.43-3.17-7.86-3.17a11.71,11.71,0,0,0-5.3,1.15,8.48,8.48,0,0,0-3.5,3.35Z"/><path class="cls-3" d="M123.62,104.63c.5,1,1,2.6,2.09,3.21a5,5,0,0,0,2.52.32h15.65a2.57,2.57,0,0,0,2.27-3.75c-1-1.87-2-3.71-3-5.59l-6-11.36a5.75,5.75,0,0,1-.76-1.66s-.22-.36.07-1.33c.29-.72,3.93-7.89,4.15-8.62,1.48-4.58,19.47-47.95-31.58-52.38a11.56,11.56,0,0,1,1.12.68A36.34,36.34,0,0,1,121.06,35a35.71,35.71,0,0,1,2.74,33.24,34.72,34.72,0,0,1-2.7,5.12,35.35,35.35,0,0,1-6.42,7.5,3.75,3.75,0,0,0-1.33,1.66,2.49,2.49,0,0,0,.11,1.84Z"/><path class="cls-4" d="M36.56,47.92C44.78,42.34,53,42,55.63,49.69a1.62,1.62,0,0,0,0,.4A35.63,35.63,0,0,0,86.27,89.56a35.2,35.2,0,0,0,9.73,0c.79-.11,1.55-.25,2.34-.4a4.7,4.7,0,0,1,1.73-.14C101,100,66.37,102.9,45,76.51,39.66,70,37.1,56.83,36.52,47.92Z"/><path class="cls-4" d="M143.41,70.27a52.2,52.2,0,0,1-3.28,8c-.29.54-.54,1-.83,1.59-.4.72-.83,1.48-1.26,2.2a13.31,13.31,0,0,0-1.6,2.56l0-.18a22.16,22.16,0,0,0,.79-2.16,47.41,47.41,0,0,0-28.23-58.8l-.5-.29h0c1.37.72-6.49-19.07,9.84-16.51.68.36,1.37.76,2.05,1.15a51.88,51.88,0,0,1,12.47,10.45,52.4,52.4,0,0,1,9.23,15.18,55.05,55.05,0,0,1,3.68,19A55.08,55.08,0,0,1,143.41,70.27Z"/><path class="cls-5" d="M122.75,14.76a9.82,9.82,0,0,1-.68,3.57,9.66,9.66,0,0,1-8.94,6.06,9.8,9.8,0,0,1-4.58-1.15h0a36.23,36.23,0,0,0-14.42-4.47A35,35,0,0,0,75.78,22,34.68,34.68,0,0,0,68.07,27a35.88,35.88,0,0,0-5.88,6.27,36.26,36.26,0,0,0-6.38,15.1C38.25,26.87,74.3-7.74,114.75,5.28h0c.68.18,1.41.4,2.09.61.5.25,1,.5,1.55.79h0A9.68,9.68,0,0,1,122.75,14.76Z"/><path class="cls-6" d="M116.63,5.78a11.06,11.06,0,0,0-1.87-.5h0a47.13,47.13,0,0,0-9.37-1.55c-.94-.07-1.87-.07-2.85-.07a47,47,0,0,0-46.72,44.7,2.83,2.83,0,0,0-.07.5h0c0,.29-.07.58-.11.83h0a9.64,9.64,0,0,1-9.48,7.86h-.29a9.61,9.61,0,0,1-9.34-9.63c0-.43,0-.83.07-1.23h0a53.4,53.4,0,0,1,4.83-16.4A51.58,51.58,0,0,1,52.35,15.16,55.41,55.41,0,0,1,67.78,4.74,54.74,54.74,0,0,1,86,.2,64.16,64.16,0,0,1,96.83.27a53.68,53.68,0,0,1,7.53,1.19A55.09,55.09,0,0,1,116.63,5.78Z"/><path class="cls-7" d="M108,104.56c-.5,1.44-2,1.69-3.32,2-1.59.4-3.17.68-4.79.94-2.92.43-5.88.61-8.8.76a49,49,0,0,1-9.19-.58,61.17,61.17,0,0,1-9.48-2.16,52,52,0,0,1-20-11.82,51.12,51.12,0,0,1-7.86-9.52,52.86,52.86,0,0,1-7.07-17,61.76,61.76,0,0,1-1-19.11V48A46.62,46.62,0,0,0,79.67,91.83c1.26.11,2.52.14,3.82.14a46.83,46.83,0,0,0,16.58-3,.92.92,0,0,1,.25.07,2.49,2.49,0,0,1,1.55,1.41c1.19,2.34,2.38,4.69,3.53,7.07,0,.07.07.18.11.25.61,1.19,1.19,2.42,1.8,3.6C107.86,102.39,108.47,103.37,108,104.56Z"/><path class="cls-5" d="M115.33,185.2a7.55,7.55,0,0,0,3.67,1.06c2,0,3-1,3-2.18s-.79-2-2.85-2.69c-2.75-.94-4.05-2.39-4.05-4.15,0-2.36,2-4.3,5.29-4.3a7.93,7.93,0,0,1,3.77.91l-.7,1.94a6.16,6.16,0,0,0-3.13-.85c-1.65,0-2.57.91-2.57,2s.92,1.76,2.91,2.48c2.66,1,4,2.24,4,4.42,0,2.57-2.09,4.39-5.73,4.39a9.06,9.06,0,0,1-4.31-1Z"/><path class="cls-5" d="M143.54,187.89c.06-1,.13-2.48.13-3.78V166.39h2.76v9.2h.06a5.77,5.77,0,0,1,5.23-2.69c3.8,0,6.49,3,6.46,7.48,0,5.24-3.45,7.84-6.87,7.84a5.52,5.52,0,0,1-5.13-2.76h-.09l-.13,2.42Zm2.88-5.87a4.72,4.72,0,0,0,.13,1,4.27,4.27,0,0,0,4.18,3.12c2.91,0,4.66-2.27,4.66-5.63,0-2.94-1.58-5.45-4.56-5.45a4.41,4.41,0,0,0-4.24,3.27,5,5,0,0,0-.16,1.09Z"/><path class="cls-5" d="M165.89,169.06v4.21h4v2h-4v7.9c0,1.82.54,2.85,2.09,2.85a6.47,6.47,0,0,0,1.61-.18l.13,2a7.12,7.12,0,0,1-2.47.36,4,4,0,0,1-3-1.12c-.79-.79-1.08-2.09-1.08-3.81v-8h-2.38v-2h2.38v-3.51Z"/><path class="cls-5" d="M176.28,169.45a1.73,1.73,0,0,1-3.45,0,1.66,1.66,0,0,1,1.74-1.67A1.62,1.62,0,0,1,176.28,169.45Zm-3.1,18.77V173.57H176v14.65Z"/><path class="cls-5" d="M183.61,169.06v4.21h4v2h-4v7.9c0,1.82.54,2.85,2.09,2.85a6.47,6.47,0,0,0,1.61-.18l.13,2a7.12,7.12,0,0,1-2.47.36,4,4,0,0,1-3-1.12c-.79-.79-1.08-2.09-1.08-3.81v-8h-2.38v-2h2.38v-3.51Z"/><path class="cls-5" d="M190.74,166.73h2.79v21.5h-2.79Z"/><path class="cls-5" d="M199.76,181.08c.06,3.6,2.47,5.09,5.26,5.09a10.48,10.48,0,0,0,4.24-.76l.48,1.91a12.92,12.92,0,0,1-5.1.91c-4.72,0-7.54-3-7.54-7.39s2.72-7.9,7.19-7.9c5,0,6.33,4.21,6.33,6.9a9.67,9.67,0,0,1-.09,1.24Zm8.17-1.91c0-1.7-.73-4.33-3.86-4.33-2.82,0-4.05,2.48-4.28,4.33Z"/><path class="cls-5" d="M140.42,173.23m-7.63,15c-2.41,0-5.29-1.27-5.29-6.42v-8.57h2.79v8.11c0,2.47.7,4.23,2.62,4.59l.12,0a4.4,4.4,0,0,0,.68,0,2,2,0,0,1,.27,1.77.88.88,0,0,0-.14.41c-.13.08-.28,0-.42,0h-.2c-.08,0-.24,0-.37,0Z"/><path class="cls-5" d="M125.78,173.23,132.5,186a4.4,4.4,0,0,0,.67,0l.14,0c1.92-.37,2.61-2.12,2.61-4.59v-8.11h2.79v8.57c0,5.15-2.88,6.44-5.29,6.42A11,11,0,0,1,132.5,186Z"/><path class="cls-5" d="M133.24,188.06"/><path class="cls-5" d="M133.46,188.22"/><path class="cls-5" d="M133.4,186.91"/></g></g></svg>